<svg xmlns="http://www.w3.org/2000/svg" xmlns:xlink="http://www.w3.org/1999/xlink" width="940" zoomAndPan="magnify" viewBox="0 0 705 591.000005" height="788" preserveAspectRatio="xMidYMid meet" version="1.0"><defs><clipPath id="6e874275a1"><path d="M 327 241 L 704.402344 241 L 704.402344 460.238281 L 327 460.238281 Z M 327 241 " clip-rule="nonzero"/></clipPath><clipPath id="bee0624577"><path d="M 38 130.046875 L 698 130.046875 L 698 210 L 38 210 Z M 38 130.046875 " clip-rule="nonzero"/></clipPath><clipPath id="99fcc0bd08"><path d="M 0.59375 240 L 341 240 L 341 459 L 0.59375 459 Z M 0.59375 240 " clip-rule="nonzero"/></clipPath></defs><g clip-path="url(#6e874275a1)"><path fill="#dac900" d="M 506.609375 241.144531 C 493.367188 285.976562 480.265625 329.824219 467.164062 374.234375 C 481.394531 379.875 495.480469 379.734375 509.707031 376.492188 C 557.179688 365.210938 591.269531 327.710938 598.734375 278.363281 C 600.566406 266.238281 601.410156 254.113281 602.820312 241.566406 C 636.207031 241.566406 669.734375 241.566406 703.964844 241.566406 C 703.964844 246.21875 704.105469 250.730469 703.964844 255.382812 C 702.554688 289.785156 698.46875 323.761719 682.269531 354.496094 C 665.082031 387.207031 643.390625 416.53125 611.273438 436.269531 C 586.621094 451.355469 559.433594 458.96875 530.980469 459.390625 C 464.207031 460.238281 397.4375 459.953125 330.664062 460.238281 C 329.679688 460.238281 328.695312 459.953125 327.003906 459.8125 C 330.804688 446.277344 334.609375 432.886719 338.273438 419.632812 C 354.613281 362.25 371.09375 305.011719 387.292969 247.488281 C 388.703125 242.269531 390.957031 241.003906 396.167969 241.003906 C 430.964844 241.285156 465.617188 241.144531 500.410156 241.144531 C 501.820312 241.144531 503.792969 241.144531 506.609375 241.144531 Z M 506.609375 241.144531 " fill-opacity="1" fill-rule="nonzero"/></g><g clip-path="url(#bee0624577)"><path fill="#dac900" d="M 38.648438 209.984375 C 44.140625 191.375 49.496094 172.90625 54.847656 154.578125 C 56.820312 147.949219 58.933594 141.324219 60.625 134.558594 C 61.46875 131.457031 62.878906 130.046875 66.117188 130.46875 C 66.679688 130.609375 67.386719 130.46875 67.949219 130.46875 C 249.386719 130.46875 430.820312 130.46875 612.257812 130.46875 C 650.996094 130.46875 691.003906 164.585938 697.0625 202.792969 C 697.484375 205.050781 697.484375 207.164062 697.90625 209.984375 C 478.152344 209.984375 258.683594 209.984375 38.648438 209.984375 Z M 38.648438 209.984375 " fill-opacity="1" fill-rule="nonzero"/></g><g clip-path="url(#99fcc0bd08)"><path fill="#dac900" d="M 0.894531 458.121094 C 5.261719 442.472656 9.488281 427.386719 13.714844 412.300781 C 28.929688 357.457031 44.28125 302.472656 59.355469 247.488281 C 60.765625 242.554688 62.738281 240.859375 67.949219 240.859375 C 156.554688 241.003906 245.300781 241.003906 333.90625 241.003906 C 335.878906 241.003906 337.992188 241.003906 340.808594 241.003906 C 339.679688 244.667969 338.835938 247.769531 337.992188 250.871094 C 330.804688 274.980469 323.339844 298.949219 316.4375 323.058594 C 315.171875 327.425781 313.058594 328.695312 308.691406 328.695312 C 262.34375 328.554688 216 328.695312 169.515625 328.414062 C 163.035156 328.414062 160.921875 330.527344 159.371094 336.449219 C 149.089844 375.082031 138.242188 413.710938 127.957031 452.339844 C 126.832031 456.710938 125.28125 458.546875 120.351562 458.546875 C 82.597656 458.261719 44.707031 458.402344 6.953125 458.402344 C 5.121094 458.402344 3.289062 458.261719 0.894531 458.121094 Z M 0.894531 458.121094 " fill-opacity="1" fill-rule="nonzero"/></g></svg>