<svg xmlns="http://www.w3.org/2000/svg" xmlns:xlink="http://www.w3.org/1999/xlink" width="245" zoomAndPan="magnify" viewBox="0 0 183.75 187.499995" height="250" preserveAspectRatio="xMidYMid meet" version="1.0"><defs><g/><clipPath id="8e3f3f490d"><path d="M 0.121094 0 L 183.382812 0 L 183.382812 187 L 0.121094 187 Z M 0.121094 0 " clip-rule="nonzero"/></clipPath><clipPath id="8227f974c5"><path d="M 91.875 0 C 41.199219 0 0.121094 41.917969 0.121094 93.628906 C 0.121094 145.335938 41.199219 187.253906 91.875 187.253906 C 142.550781 187.253906 183.628906 145.335938 183.628906 93.628906 C 183.628906 41.917969 142.550781 0 91.875 0 " clip-rule="nonzero"/></clipPath></defs><g clip-path="url(#8e3f3f490d)"><g clip-path="url(#8227f974c5)"><path fill="#009c3b" d="M 0.121094 0 L 183.628906 0 L 183.628906 186.378906 L 0.121094 186.378906 Z M 0.121094 0 " fill-opacity="1" fill-rule="nonzero"/></g></g><g fill="#ffffff" fill-opacity="1"><g transform="translate(39.947646, 156.870484)"><g><path d="M 97.84375 -80.03125 C 97.84375 -66.914062 93.976562 -56.785156 86.25 -49.640625 C 78.519531 -42.503906 67.535156 -38.9375 53.296875 -38.9375 L 44.390625 -38.9375 L 44.390625 0 L 12.6875 0 L 12.6875 -117.359375 L 53.296875 -117.359375 C 68.117188 -117.359375 79.25 -114.117188 86.6875 -107.640625 C 94.125 -101.160156 97.84375 -91.957031 97.84375 -80.03125 Z M 44.390625 -64.78125 L 50.171875 -64.78125 C 54.929688 -64.78125 58.710938 -66.113281 61.515625 -68.78125 C 64.328125 -71.457031 65.734375 -75.15625 65.734375 -79.875 C 65.734375 -87.789062 61.347656 -91.75 52.578125 -91.75 L 44.390625 -91.75 Z M 44.390625 -64.78125 "/></g></g></g></svg>