<svg xmlns="http://www.w3.org/2000/svg" xmlns:xlink="http://www.w3.org/1999/xlink" width="900" zoomAndPan="magnify" viewBox="0 0 675 187.499995" height="250" preserveAspectRatio="xMidYMid meet" version="1.0"><defs><g/><clipPath id="4cedee8744"><path d="M 0.898438 42 L 82 42 L 82 155 L 0.898438 155 Z M 0.898438 42 " clip-rule="nonzero"/></clipPath><clipPath id="afc2e3ae5a"><path d="M 301 66 L 386 66 L 386 187 L 301 187 Z M 301 66 " clip-rule="nonzero"/></clipPath></defs><g clip-path="url(#4cedee8744)"><g fill="#61df74" fill-opacity="1"><g transform="translate(-11.286137, 154.046736)"><g><path d="M 92.953125 -76.015625 C 92.953125 -63.566406 89.273438 -53.945312 81.921875 -47.15625 C 74.578125 -40.375 64.144531 -36.984375 50.625 -36.984375 L 42.171875 -36.984375 L 42.171875 0 L 12.046875 0 L 12.046875 -111.46875 L 50.625 -111.46875 C 64.707031 -111.46875 75.28125 -108.390625 82.34375 -102.234375 C 89.414062 -96.085938 92.953125 -87.347656 92.953125 -76.015625 Z M 42.171875 -61.53125 L 47.65625 -61.53125 C 52.175781 -61.53125 55.769531 -62.800781 58.4375 -65.34375 C 61.113281 -67.882812 62.453125 -71.390625 62.453125 -75.859375 C 62.453125 -83.390625 58.28125 -87.15625 49.9375 -87.15625 L 42.171875 -87.15625 Z M 42.171875 -61.53125 "/></g></g></g></g><g fill="#61df74" fill-opacity="1"><g transform="translate(87.373373, 154.046736)"><g><path d="M 92.796875 -43.390625 C 92.796875 -29.253906 88.992188 -18.234375 81.390625 -10.328125 C 73.796875 -2.421875 63.160156 1.53125 49.484375 1.53125 C 36.367188 1.53125 25.9375 -2.507812 18.1875 -10.59375 C 10.4375 -18.675781 6.5625 -29.609375 6.5625 -43.390625 C 6.5625 -57.460938 10.359375 -68.398438 17.953125 -76.203125 C 25.554688 -84.015625 36.21875 -87.921875 49.9375 -87.921875 C 58.425781 -87.921875 65.925781 -86.113281 72.4375 -82.5 C 78.945312 -78.894531 83.96875 -73.722656 87.5 -66.984375 C 91.03125 -60.242188 92.796875 -52.378906 92.796875 -43.390625 Z M 36.828125 -43.390625 C 36.828125 -35.960938 37.816406 -30.304688 39.796875 -26.421875 C 41.785156 -22.535156 45.117188 -20.59375 49.796875 -20.59375 C 54.421875 -20.59375 57.6875 -22.535156 59.59375 -26.421875 C 61.5 -30.304688 62.453125 -35.960938 62.453125 -43.390625 C 62.453125 -50.753906 61.484375 -56.316406 59.546875 -60.078125 C 57.617188 -63.835938 54.316406 -65.71875 49.640625 -65.71875 C 45.066406 -65.71875 41.785156 -63.847656 39.796875 -60.109375 C 37.816406 -56.378906 36.828125 -50.804688 36.828125 -43.390625 Z M 36.828125 -43.390625 "/></g></g></g><g fill="#61df74" fill-opacity="1"><g transform="translate(186.871565, 154.046736)"><g><path d="M 71.828125 0 L 68.09375 -10.75 L 66.328125 -10.75 C 63.835938 -6.78125 60.367188 -3.738281 55.921875 -1.625 C 51.472656 0.476562 46.253906 1.53125 40.265625 1.53125 C 30.753906 1.53125 23.351562 -1.222656 18.0625 -6.734375 C 12.78125 -12.253906 10.140625 -20.050781 10.140625 -30.125 L 10.140625 -86.390625 L 39.953125 -86.390625 L 39.953125 -39.1875 C 39.953125 -33.550781 40.75 -29.28125 42.34375 -26.375 C 43.945312 -23.476562 46.582031 -22.03125 50.25 -22.03125 C 55.382812 -22.03125 59.039062 -24.050781 61.21875 -28.09375 C 63.40625 -32.132812 64.5 -38.957031 64.5 -48.5625 L 64.5 -86.390625 L 94.3125 -86.390625 L 94.3125 0 Z M 71.828125 0 "/></g></g></g><g clip-path="url(#afc2e3ae5a)"><g fill="#61df74" fill-opacity="1"><g transform="translate(291.478093, 154.046736)"><g><path d="M 62.140625 1.53125 C 57.765625 1.53125 53.847656 0.804688 50.390625 -0.640625 C 46.941406 -2.097656 43.515625 -4.707031 40.109375 -8.46875 L 38.734375 -8.46875 C 39.648438 -2.414062 40.109375 1.347656 40.109375 2.828125 L 40.109375 37.515625 L 10.296875 37.515625 L 10.296875 -86.390625 L 34.546875 -86.390625 L 38.734375 -75.40625 L 40.109375 -75.40625 C 45.648438 -83.75 53.300781 -87.921875 63.0625 -87.921875 C 72.613281 -87.921875 80.109375 -83.953125 85.546875 -76.015625 C 90.984375 -68.085938 93.703125 -57.210938 93.703125 -43.390625 C 93.703125 -29.460938 90.867188 -18.492188 85.203125 -10.484375 C 79.535156 -2.472656 71.847656 1.53125 62.140625 1.53125 Z M 52.15625 -64.5 C 47.78125 -64.5 44.710938 -62.9375 42.953125 -59.8125 C 41.203125 -56.6875 40.253906 -52.050781 40.109375 -45.90625 L 40.109375 -43.53125 C 40.109375 -36.113281 41.097656 -30.753906 43.078125 -27.453125 C 45.054688 -24.148438 48.179688 -22.5 52.453125 -22.5 C 56.265625 -22.5 59.035156 -24.132812 60.765625 -27.40625 C 62.492188 -30.6875 63.359375 -36.113281 63.359375 -43.6875 C 63.359375 -51.113281 62.492188 -56.4375 60.765625 -59.65625 C 59.035156 -62.882812 56.164062 -64.5 52.15625 -64.5 Z M 52.15625 -64.5 "/></g></g></g></g><g fill="#61df74" fill-opacity="1"><g transform="translate(391.891211, 154.046736)"><g><path d="M 66.640625 0 L 60.921875 -11.4375 L 60.3125 -11.4375 C 56.289062 -6.457031 52.195312 -3.050781 48.03125 -1.21875 C 43.863281 0.613281 38.476562 1.53125 31.875 1.53125 C 23.738281 1.53125 17.332031 -0.90625 12.65625 -5.78125 C 7.976562 -10.664062 5.640625 -17.53125 5.640625 -26.375 C 5.640625 -35.582031 8.84375 -42.429688 15.25 -46.921875 C 21.65625 -51.421875 30.929688 -53.953125 43.078125 -54.515625 L 57.484375 -54.96875 L 57.484375 -56.1875 C 57.484375 -63.3125 53.976562 -66.875 46.96875 -66.875 C 40.664062 -66.875 32.660156 -64.738281 22.953125 -60.46875 L 14.328125 -80.140625 C 24.398438 -85.328125 37.109375 -87.921875 52.453125 -87.921875 C 63.535156 -87.921875 72.113281 -85.171875 78.1875 -79.671875 C 84.257812 -74.179688 87.296875 -66.507812 87.296875 -56.65625 L 87.296875 0 Z M 44.53125 -19.515625 C 48.132812 -19.515625 51.21875 -20.65625 53.78125 -22.9375 C 56.351562 -25.226562 57.640625 -28.207031 57.640625 -31.875 L 57.640625 -38.578125 L 50.78125 -38.28125 C 40.96875 -37.925781 36.0625 -34.316406 36.0625 -27.453125 C 36.0625 -22.160156 38.882812 -19.515625 44.53125 -19.515625 Z M 44.53125 -19.515625 "/></g></g></g><path fill="#ffffff" d="M 591.925781 24.675781 C 591.152344 24.734375 590.410156 24.964844 589.75 25.339844 L 575.363281 33.582031 C 572.949219 34.875 572.109375 37.890625 573.453125 40.246094 C 574.804688 42.617188 577.84375 43.40625 580.179688 41.988281 L 594.601562 33.761719 C 599.183594 31.265625 597.121094 24.296875 591.925781 24.675781 Z M 591.925781 24.675781 " fill-opacity="1" fill-rule="nonzero"/><path fill="#ffffff" d="M 516.386719 67.855469 C 515.628906 67.914062 514.894531 68.140625 514.246094 68.535156 L 499.824219 76.757812 C 497.433594 78.054688 496.566406 81.066406 497.9375 83.4375 C 499.289062 85.789062 502.320312 86.578125 504.664062 85.175781 L 519.066406 76.953125 C 523.652344 74.449219 521.601562 67.480469 516.386719 67.855469 Z M 516.386719 67.855469 " fill-opacity="1" fill-rule="nonzero"/><path fill="#ffffff" d="M 521.023438 5.808594 C 517.320312 5.933594 515.109375 10.007812 517.03125 13.167969 L 525.351562 27.441406 C 526.707031 29.761719 529.671875 30.550781 531.992188 29.203125 C 534.324219 27.855469 535.097656 24.871094 533.75 22.554688 L 525.441406 8.304688 C 524.542969 6.707031 522.839844 5.753906 521.023438 5.808594 Z M 521.023438 5.808594 " fill-opacity="1" fill-rule="nonzero"/><path fill="#ffffff" d="M 560.476562 0.585938 C 558.351562 0.695312 556.539062 2.164062 556.015625 4.210938 L 551.699219 20.191406 C 550.910156 22.792969 552.457031 25.5625 555.097656 26.257812 C 557.738281 26.976562 560.433594 25.363281 561.085938 22.707031 L 565.386719 6.761719 C 566.300781 3.566406 563.800781 0.441406 560.476562 0.585938 Z M 560.476562 0.585938 " fill-opacity="1" fill-rule="nonzero"/><path fill="#ffffff" d="M 496.878906 37.117188 C 491.230469 37.296875 490.371094 45.308594 495.851562 46.671875 L 511.886719 50.921875 C 514.535156 51.75 517.339844 50.226562 518.058594 47.546875 C 518.78125 44.871094 517.085938 42.144531 514.386719 41.554688 L 498.3125 37.3125 C 497.847656 37.175781 497.359375 37.117188 496.878906 37.117188 Z M 496.878906 37.117188 " fill-opacity="1" fill-rule="nonzero"/><path fill="#ffffff" d="M 544.578125 50.367188 C 548.046875 48.464844 551.84375 49.148438 553.390625 51.949219 L 585.179688 109.503906 C 587.839844 114.945312 595.933594 110.496094 592.75 105.359375 L 586.941406 94.855469 C 582.96875 87.65625 595.464844 81.570312 599.097656 88.160156 L 603.664062 96.421875 C 606.328125 101.855469 614.417969 97.40625 611.234375 92.269531 L 608.789062 87.855469 C 607.90625 86.257812 607.96875 84.136719 609.34375 82.09375 C 610.730469 80.042969 613.265625 78.648438 615.75 78.558594 C 618.210938 78.484375 620.050781 79.582031 620.910156 81.125 L 624.074219 86.871094 C 626.863281 91.914062 634.445312 87.730469 631.660156 82.683594 L 630.453125 80.53125 C 629.75 79.253906 629.359375 78 629.933594 76.597656 C 630.742188 74.710938 633.101562 73.402344 635.148438 73.3125 C 637.199219 73.242188 638.277344 73.636719 639.371094 75.539062 C 644.535156 84.441406 654.296875 102.542969 654.296875 102.542969 C 662.425781 117.390625 665.214844 130.582031 662.855469 141.570312 C 660.503906 152.558594 653.113281 161.910156 640.632812 168.75 C 628.171875 175.570312 619.433594 177.40625 611.414062 176.492188 C 603.410156 175.570312 595.878906 171.839844 588.070312 165.792969 L 542.816406 130.714844 C 540.476562 128.882812 539.65625 126.910156 543.195312 124.695312 C 546.898438 122.34375 551.773438 124.695312 555.296875 126.402344 C 555.410156 126.476562 575.507812 137.015625 575.507812 137.015625 C 579.285156 138.898438 583.277344 134.800781 581.246094 131.109375 L 541.234375 58.648438 C 539.148438 54.898438 541.488281 52.070312 544.578125 50.367188 Z M 540.390625 42.792969 C 538.105469 44.050781 536.128906 45.828125 534.636719 48.050781 C 531.636719 52.488281 531.109375 58.179688 533.664062 62.808594 L 566.878906 122.898438 L 561.699219 120.261719 C 558.550781 118.464844 551.25 115.378906 546.824219 115.320312 C 542.246094 115.339844 538.195312 117.007812 535.390625 119.542969 C 530.910156 123.582031 530.285156 127.765625 532.964844 132.59375 C 534.960938 136.203125 538.390625 138.359375 541.035156 140.40625 L 582.804688 172.636719 C 591.363281 179.238281 600.371094 183.925781 610.425781 185.074219 C 620.453125 186.222656 631.261719 183.722656 643.042969 177.035156 C 658.757812 168.664062 668.359375 157.066406 671.285156 143.386719 C 674.238281 129.671875 670.625 114.390625 661.851562 98.375 L 646.941406 71.375 C 644.589844 67.121094 639.816406 64.605469 634.949219 65 C 627.8125 65.574219 624.304688 68.464844 622.199219 73.546875 C 618.699219 70.078125 614.363281 69.863281 609.796875 71.386719 C 605.515625 72.847656 603.394531 75.5 601.308594 78.734375 C 599.023438 77.480469 596.363281 76.847656 593.648438 76.921875 C 588.527344 77.085938 583.796875 79.597656 580.773438 83.691406 L 560.941406 47.785156 C 558.386719 43.148438 553.28125 40.5625 547.925781 40.730469 C 545.246094 40.796875 542.671875 41.535156 540.390625 42.792969 Z M 540.390625 42.792969 " fill-opacity="1" fill-rule="nonzero"/></svg>